<svg width="200" height="202" viewBox="0 0 200 202" fill="none" xmlns="http://www.w3.org/2000/svg">
<g filter="url(#filter0_i_199_65)">
<path fill-rule="evenodd" clip-rule="evenodd" d="M157.199 20.1822C158.616 19.8418 160.112 20.1529 161.263 21.0461C168.014 26.2866 174.077 32.3731 179.29 39.1465C180.167 40.2851 180.476 41.7584 180.152 43.1581C177.246 55.6946 173.087 67.7436 167.814 79.1645C166.234 82.5882 161.56 82.9054 159.288 79.8954C148.29 65.3211 135.367 52.2987 120.9 41.2117C117.937 38.9409 118.246 34.3268 121.62 32.7297C132.906 27.388 144.812 23.159 157.199 20.1822ZM19.4473 43.7334C19.1109 42.3344 19.4094 40.8566 20.279 39.7103C25.5887 32.7105 31.7991 26.4316 38.7376 21.0461C39.8883 20.153 41.3844 19.8418 42.8008 20.1822C55.1877 23.159 67.094 27.3881 78.3796 32.7297C81.7539 34.3268 82.0626 38.9409 79.0996 41.2118C64.547 52.3648 51.5563 65.4764 40.5155 80.1561C38.2562 83.16 33.6003 82.8641 32.0002 79.463C26.6706 68.1347 22.4399 56.1785 19.4473 43.7334ZM42.8008 182.142C41.3844 182.482 39.8883 182.171 38.7376 181.278C31.9858 176.037 25.9235 169.951 20.7097 163.177C19.8332 162.039 19.5238 160.565 19.8482 159.166C22.7496 146.646 26.9016 134.613 32.164 123.206C33.7385 119.793 38.3921 119.462 40.6738 122.449C51.7732 136.98 64.7951 149.945 79.3565 160.959C82.3418 163.218 82.0513 167.849 78.6707 169.456C67.2988 174.863 55.2942 179.139 42.8008 182.142ZM180.152 159.166C180.476 160.566 180.167 162.039 179.29 163.177C174.275 169.693 168.474 175.573 162.03 180.676C160.886 181.582 159.391 181.907 157.97 181.578C145.492 178.692 133.493 174.538 122.114 169.256C118.719 167.68 118.386 163.052 121.35 160.766C135.635 149.755 148.404 136.852 159.288 122.429C161.56 119.418 166.234 119.736 167.814 123.159C173.087 134.58 177.246 146.629 180.152 159.166ZM187.045 130.277C188.677 134.609 194.678 134.842 195.979 130.399C197.501 125.205 198.612 119.836 199.276 114.33C199.622 111.458 197.321 109.008 194.429 109.008H185.796C182.052 109.008 179.624 112.979 181.203 116.373C183.316 120.918 185.266 125.555 187.045 130.277ZM200 102.428C200 102.363 200 102.299 200 102.234V100.089C200 100.025 200 99.9605 200 99.896V102.428ZM199.276 87.9942C199.622 90.8662 197.321 93.3162 194.429 93.3162H185.796C182.052 93.3162 179.624 89.3453 181.203 85.9505C183.316 81.4059 185.266 76.7688 187.045 72.0471C188.677 67.7148 194.678 67.4824 195.979 71.9252C197.501 77.1188 198.612 82.4876 199.276 87.9942ZM129.786 188.724C134.088 190.334 134.378 196.282 129.996 197.658C124.119 199.503 118.009 200.821 111.72 201.555C108.854 201.89 106.415 199.591 106.415 196.706V186.517C106.415 182.749 110.434 180.321 113.835 181.945C119.033 184.427 124.354 186.691 129.786 188.724ZM88.2802 201.555C91.1465 201.89 93.5851 199.591 93.5851 196.706V187.079C93.5851 183.301 89.5474 180.873 86.1448 182.515C81.2387 184.883 76.2219 187.056 71.1045 189.023C66.8139 190.673 66.5804 196.627 70.9799 197.959C76.5564 199.647 82.3388 200.861 88.2802 201.555ZM12.9553 130.277C11.3231 134.609 5.32248 134.841 4.02091 130.398C2.49942 125.205 1.38802 119.836 0.724133 114.33C0.377881 111.458 2.67872 109.008 5.57146 109.008H14.2039C17.9479 109.008 20.3763 112.979 18.7975 116.373C16.6841 120.918 14.7342 125.555 12.9553 130.277ZM5.57147 93.3162C2.67872 93.3162 0.377877 90.8663 0.724127 87.9943C1.36085 82.7131 2.40922 77.5586 3.83621 72.5639C5.10721 68.1151 11.1051 68.3029 12.7707 72.6194C14.5136 77.1361 16.4134 81.5738 18.4634 85.926C20.0637 89.3232 17.6356 93.3162 13.8803 93.3162H5.57147ZM71.1045 13.3009C66.8139 11.6513 66.5804 5.69727 70.9799 4.36527C76.5564 2.67691 82.3388 1.46251 88.2802 0.768919C91.1465 0.434322 93.5851 2.73272 93.5851 5.61843V15.2451C93.5851 19.0232 89.5474 21.4505 86.1448 19.8085C81.2387 17.4408 76.2219 15.2683 71.1045 13.3009ZM111.72 0.768933C108.854 0.434333 106.415 2.73274 106.415 5.61845V15.2449C106.415 19.023 110.453 21.4503 113.856 19.8083C118.762 17.4408 123.778 15.2683 128.896 13.3009C133.186 11.6513 133.42 5.69724 129.02 4.36524C123.444 2.67691 117.662 1.46252 111.72 0.768933ZM88.5851 109.008C91.3465 109.008 93.5851 111.246 93.5851 114.008V143.141C93.5851 147.191 89.0431 149.528 85.8552 147.029C74.5433 138.164 64.2776 128.006 55.2776 116.775C52.7297 113.596 55.0589 109.008 59.1331 109.008H88.5851ZM144.719 116.754C147.238 113.569 144.905 109.008 140.844 109.008H111.415C108.654 109.008 106.415 111.246 106.415 114.008V143.471C106.415 147.533 110.979 149.866 114.163 147.344C125.485 138.373 135.744 128.103 144.719 116.754ZM111.415 93.3162C108.654 93.3162 106.415 91.0776 106.415 88.3162V58.8526C106.415 54.7909 110.979 52.458 114.163 54.9804C125.485 63.9508 135.744 74.2214 144.719 85.5698C147.238 88.7546 144.905 93.3162 140.844 93.3162H111.415ZM93.5851 58.8524C93.5851 54.7906 89.0213 52.4578 85.8377 54.9801C74.5156 63.9506 64.2557 74.2213 55.2806 85.5698C52.7618 88.7546 55.0954 93.3162 59.1558 93.3162H88.5851C91.3465 93.3162 93.5851 91.0776 93.5851 88.3162V58.8524Z" fill="url(#paint0_linear_199_65)"/>
</g>
<defs>
<filter id="filter0_i_199_65" x="0.689453" y="0.736484" width="199.311" height="204.851" filterUnits="userSpaceOnUse" color-interpolation-filters="sRGB">
<feFlood flood-opacity="0" result="BackgroundImageFix"/>
<feBlend mode="normal" in="SourceGraphic" in2="BackgroundImageFix" result="shape"/>
<feColorMatrix in="SourceAlpha" type="matrix" values="0 0 0 0 0 0 0 0 0 0 0 0 0 0 0 0 0 0 127 0" result="hardAlpha"/>
<feOffset dy="4"/>
<feGaussianBlur stdDeviation="2"/>
<feComposite in2="hardAlpha" operator="arithmetic" k2="-1" k3="1"/>
<feColorMatrix type="matrix" values="0 0 0 0 0 0 0 0 0 0 0 0 0 0 0 0 0 0 0.25 0"/>
<feBlend mode="normal" in2="shape" result="effect1_innerShadow_199_65"/>
</filter>
<linearGradient id="paint0_linear_199_65" x1="100.541" y1="0.0894165" x2="100.541" y2="201.143" gradientUnits="userSpaceOnUse">
<stop stop-color="#9D39E9"/>
<stop offset="1" stop-color="#8B31A9"/>
</linearGradient>
</defs>
</svg>
